<svg width="184" height="373" viewBox="0 0 184 373" fill="none" xmlns="http://www.w3.org/2000/svg">
<path d="M154.077 372.933L27.816 372.351C20.5246 372.311 13.5471 369.378 8.41612 364.198C3.28514 359.017 0.420178 352.012 0.450433 344.72L1.79027 28.2018C1.80517 24.5893 2.53187 21.0152 3.92884 17.6838C5.32582 14.3524 7.36568 11.3289 9.9318 8.78627C12.4979 6.24363 15.54 4.23165 18.8841 2.86535C22.2283 1.49906 25.8089 0.805233 29.4213 0.823534L155.67 1.40497C162.961 1.44177 169.94 4.37102 175.073 9.5494C180.207 14.7278 183.075 21.7319 183.048 29.0234L181.708 345.529C181.693 349.143 180.967 352.718 179.57 356.051C178.173 359.384 176.134 362.409 173.568 364.953C171.002 367.498 167.96 369.512 164.616 370.882C161.272 372.251 157.691 372.947 154.077 372.933Z" fill="#455A64"/>
<path d="M155.48 12.288H131.009C130.211 12.3028 129.423 12.4748 128.691 12.7941C127.959 13.1134 127.297 13.5737 126.743 14.1489C126.189 14.724 125.754 15.4027 125.462 16.1461C125.17 16.8896 125.028 17.6832 125.043 18.4816V22.9183C125.058 23.7161 124.916 24.5091 124.624 25.2518C124.332 25.9945 123.896 26.6723 123.342 27.2464C122.788 27.8206 122.126 28.2798 121.394 28.5977C120.662 28.9156 119.875 29.0861 119.077 29.0992L71.3736 28.8843C69.7598 28.8413 68.2291 28.1596 67.1176 26.9888C66.0061 25.818 65.4047 24.254 65.4454 22.6402V18.2035C65.4863 16.5918 64.8866 15.0297 63.7778 13.8593C62.669 12.6889 61.1415 12.0057 59.5299 11.9594H50.9221L29.4973 11.8583C24.4013 11.8279 19.501 13.8181 15.8692 17.393C12.2375 20.9679 10.1702 25.8362 10.1202 30.932L8.85616 339.879C8.84452 342.407 9.33092 344.913 10.2876 347.253C11.2443 349.593 12.6526 351.721 14.4319 353.517C16.2113 355.313 18.327 356.741 20.6582 357.719C22.9893 358.697 25.4904 359.206 28.0184 359.218L154.014 359.799C156.544 359.811 159.051 359.324 161.392 358.367C163.734 357.41 165.864 356.001 167.661 354.22C169.458 352.439 170.887 350.322 171.866 347.99C172.844 345.657 173.354 343.154 173.366 340.625L174.63 31.6778C174.66 26.5676 172.66 21.6545 169.069 18.0186C165.478 14.3827 160.59 12.3214 155.48 12.288Z" fill="white"/>
<path d="M138.53 318.58L44.8421 318.176C43.8689 318.176 43.0852 317.114 43.0978 315.825L43.1989 291.316C43.1989 290.052 43.9953 288.965 44.9685 288.965L138.656 289.395C139.196 289.488 139.678 289.786 140.003 290.226C140.328 290.667 140.47 291.216 140.401 291.758L140.312 316.242C140.312 317.544 139.503 318.593 138.53 318.58Z" fill="#1E2772"/>
<path d="M75.2669 300.641C75.2231 300.271 75.0455 299.984 74.734 299.779C74.4226 299.575 74.0406 299.473 73.588 299.473C73.2571 299.473 72.9675 299.526 72.7193 299.633C72.4736 299.74 72.2813 299.888 72.1426 300.075C72.0064 300.262 71.9383 300.475 71.9383 300.714C71.9383 300.913 71.9857 301.085 72.0806 301.228C72.1779 301.369 72.302 301.487 72.4529 301.582C72.6037 301.675 72.7619 301.751 72.9274 301.812C73.0928 301.871 73.2449 301.918 73.3836 301.955L74.1428 302.159C74.3374 302.21 74.554 302.281 74.7924 302.371C75.0333 302.461 75.2633 302.584 75.4822 302.739C75.7037 302.893 75.8862 303.09 76.0297 303.331C76.1733 303.571 76.2451 303.867 76.2451 304.218C76.2451 304.621 76.1392 304.986 75.9275 305.312C75.7183 305.639 75.4117 305.898 75.0078 306.09C74.6063 306.282 74.1184 306.378 73.5442 306.378C73.0089 306.378 72.5453 306.292 72.1536 306.119C71.7643 305.946 71.4577 305.705 71.2338 305.396C71.0124 305.087 70.8871 304.728 70.8579 304.32H71.7923C71.8166 304.602 71.9115 304.836 72.0769 305.02C72.2448 305.203 72.4565 305.339 72.712 305.429C72.9699 305.517 73.2473 305.561 73.5442 305.561C73.8897 305.561 74.1999 305.505 74.4749 305.393C74.7498 305.278 74.9676 305.12 75.1282 304.918C75.2888 304.714 75.3691 304.475 75.3691 304.203C75.3691 303.955 75.2998 303.753 75.1611 303.597C75.0224 303.441 74.8399 303.315 74.6136 303.217C74.3873 303.12 74.1428 303.035 73.88 302.962L72.9602 302.699C72.3762 302.531 71.9139 302.292 71.5733 301.98C71.2326 301.669 71.0623 301.261 71.0623 300.757C71.0623 300.339 71.1754 299.974 71.4017 299.663C71.6304 299.349 71.937 299.105 72.3215 298.933C72.7084 298.757 73.1403 298.67 73.6172 298.67C74.099 298.67 74.5272 298.756 74.9019 298.929C75.2766 299.099 75.5735 299.333 75.7925 299.63C76.0139 299.927 76.1307 300.264 76.1429 300.641H75.2669ZM78.6384 298.772V306.247H77.7333V298.772H78.6384ZM86.3807 298.772V306.247H85.5047L81.4315 300.378H81.3585V306.247H80.4533V298.772H81.3293L85.4171 304.655H85.4901V298.772H86.3807ZM93.3017 301.108C93.2214 300.862 93.1155 300.642 92.9841 300.447C92.8552 300.25 92.7007 300.082 92.5206 299.944C92.343 299.805 92.141 299.699 91.9147 299.626C91.6884 299.553 91.4403 299.517 91.1702 299.517C90.7273 299.517 90.3246 299.631 89.9621 299.86C89.5995 300.088 89.3112 300.425 89.0971 300.871C88.8829 301.316 88.7759 301.862 88.7759 302.509C88.7759 303.157 88.8841 303.703 89.1007 304.148C89.3173 304.593 89.6105 304.93 89.9803 305.159C90.3502 305.388 90.7662 305.502 91.2286 305.502C91.6568 305.502 92.034 305.411 92.36 305.229C92.6885 305.044 92.944 304.783 93.1265 304.447C93.3114 304.109 93.4039 303.711 93.4039 303.254L93.6813 303.312H91.433V302.509H94.2798V303.312C94.2798 303.928 94.1484 304.463 93.8856 304.918C93.6253 305.373 93.2652 305.726 92.8053 305.977C92.3478 306.225 91.8223 306.349 91.2286 306.349C90.5667 306.349 89.9852 306.193 89.4839 305.882C88.9851 305.57 88.5958 305.128 88.316 304.553C88.0386 303.979 87.8999 303.298 87.8999 302.509C87.8999 301.918 87.979 301.386 88.1371 300.914C88.2977 300.44 88.524 300.036 88.816 299.703C89.108 299.369 89.4535 299.114 89.8526 298.936C90.2516 298.759 90.6908 298.67 91.1702 298.67C91.5643 298.67 91.9318 298.729 92.2724 298.849C92.6155 298.965 92.9209 299.132 93.1885 299.349C93.4586 299.563 93.6837 299.819 93.8637 300.119C94.0438 300.416 94.1679 300.745 94.236 301.108H93.3017ZM103.626 298.772H104.531V303.721C104.531 304.232 104.411 304.688 104.17 305.09C103.932 305.489 103.595 305.804 103.159 306.035C102.723 306.264 102.212 306.378 101.626 306.378C101.04 306.378 100.529 306.264 100.093 306.035C99.6576 305.804 99.3193 305.489 99.0785 305.09C98.84 304.688 98.7208 304.232 98.7208 303.721V298.772H99.6259V303.648C99.6259 304.013 99.7062 304.338 99.8668 304.623C100.027 304.905 100.256 305.128 100.553 305.291C100.852 305.451 101.21 305.531 101.626 305.531C102.042 305.531 102.4 305.451 102.699 305.291C102.998 305.128 103.227 304.905 103.385 304.623C103.546 304.338 103.626 304.013 103.626 303.648V298.772ZM106.339 306.247V298.772H108.865C109.451 298.772 109.93 298.878 110.303 299.089C110.677 299.299 110.955 299.582 111.135 299.94C111.315 300.298 111.405 300.697 111.405 301.137C111.405 301.577 111.315 301.978 111.135 302.338C110.957 302.698 110.682 302.985 110.31 303.199C109.938 303.411 109.461 303.517 108.879 303.517H107.069V302.714H108.85C109.251 302.714 109.574 302.644 109.817 302.506C110.061 302.367 110.237 302.18 110.346 301.944C110.458 301.705 110.514 301.436 110.514 301.137C110.514 300.838 110.458 300.57 110.346 300.334C110.237 300.098 110.059 299.913 109.814 299.779C109.568 299.643 109.242 299.575 108.835 299.575H107.244V306.247H106.339Z" fill="#E8E8E3"/>
<path d="M63.5293 103.107L31.0195 102.959L30.9925 108.925L63.5022 109.073L63.5293 103.107Z" fill="#1E2772"/>
<path opacity="0.1" d="M63.5293 103.107L31.0195 102.959L30.9925 108.925L63.5022 109.073L63.5293 103.107Z" fill="black"/>
<path d="M158.83 139.737C159.085 139.711 159.336 139.652 159.575 139.56C159.925 139.423 160.23 139.191 160.453 138.889C160.677 138.587 160.811 138.228 160.839 137.854C160.839 135.844 160.839 132.912 160.839 129.145C160.839 127.261 160.839 125.151 160.839 122.825C160.839 122.256 160.839 121.662 160.839 121.068C160.922 120.491 160.796 119.904 160.486 119.412C160.312 119.176 160.085 118.983 159.824 118.85C159.563 118.716 159.275 118.644 158.981 118.641H157.01H138.745L33.0238 118.249C32.7532 118.245 32.4855 118.305 32.2434 118.426C32.0014 118.547 31.7921 118.725 31.6334 118.944C31.3282 119.439 31.2115 120.027 31.3048 120.6C31.3048 121.864 31.3048 123.128 31.3048 124.392C31.3048 126.92 31.3048 129.448 31.3048 131.976C31.3048 133.24 31.3048 134.504 31.3048 135.768C31.2523 136.357 31.2523 136.949 31.3048 137.538C31.3712 137.79 31.4946 138.024 31.6655 138.221C31.8364 138.418 32.0503 138.574 32.2907 138.675C32.5398 138.775 32.8064 138.822 33.0744 138.814H39.5081L67.5816 138.966L115.108 139.257L147.15 139.51L155.859 139.611H158.122C158.64 139.611 158.893 139.611 158.893 139.611H158.122H155.859H147.15H115.108L67.5816 139.459L39.5081 139.345H33.0744C32.7203 139.36 32.3672 139.299 32.0379 139.168C31.7051 139.026 31.4091 138.81 31.1725 138.536C30.9359 138.262 30.765 137.938 30.6728 137.588C30.5996 137.257 30.5741 136.916 30.5969 136.577V135.642C30.5969 134.378 30.5969 133.114 30.5969 131.85C30.5969 129.322 30.5969 126.794 30.5969 124.266C30.5969 123.002 30.5969 121.738 30.5969 120.474C30.5728 120.137 30.5728 119.799 30.5969 119.463C30.6443 119.091 30.7881 118.738 31.0141 118.439C31.2321 118.134 31.5207 117.886 31.8552 117.716C32.1898 117.547 32.5604 117.461 32.9353 117.465L138.656 118.047L156.921 118.173H158.893C159.24 118.174 159.583 118.258 159.891 118.418C160.199 118.579 160.463 118.811 160.663 119.096C161.019 119.646 161.163 120.306 161.067 120.954C161.067 121.548 161.067 122.142 161.067 122.711C161.067 125.012 161.067 127.122 161.067 129.031C161.067 132.823 160.979 135.73 160.953 137.753C160.922 138.141 160.781 138.513 160.546 138.825C160.311 139.136 159.992 139.374 159.626 139.51C159.387 139.658 159.111 139.737 158.83 139.737Z" fill="#E0E0E0"/>
<path d="M100.243 124.594H40.7847V130.169H100.243V124.594Z" fill="#1E2772"/>
<path opacity="0.2" d="M100.243 124.594H40.7847V130.169H100.243V124.594Z" fill="white"/>
<path d="M63.3076 157.533L30.7979 157.385L30.7708 163.351L63.2805 163.499L63.3076 157.533Z" fill="#1E2772"/>
<path opacity="0.1" d="M63.3076 157.533L30.7979 157.385L30.7708 163.351L63.2805 163.499L63.3076 157.533Z" fill="black"/>
<path d="M158.008 194.165C158.263 194.134 158.517 194.087 158.766 194.026C159.119 193.914 159.444 193.727 159.719 193.478C159.994 193.23 160.212 192.925 160.359 192.585C160.558 192.075 160.636 191.525 160.587 190.98C160.587 190.373 160.587 189.716 160.587 188.983C160.587 187.516 160.587 185.848 160.587 183.927V175.9C160.647 175.319 160.518 174.734 160.22 174.232C159.908 173.717 159.418 173.334 158.842 173.157C158.213 173.045 157.572 173.011 156.934 173.056H138.745L33.3902 172.664C32.8236 172.666 32.2766 172.873 31.8512 173.247C31.4257 173.621 31.1506 174.137 31.0771 174.699C31.0771 175.9 31.0771 177.227 31.0771 178.491C31.0771 181.019 31.0771 183.547 31.0771 186.075C31.0771 187.339 31.0771 188.603 31.0771 189.867C31.03 190.458 31.0555 191.052 31.153 191.637C31.3108 192.15 31.6356 192.594 32.0757 192.901C32.5426 193.197 33.091 193.339 33.643 193.305H35.4H39.053L67.0253 193.445L114.387 193.735L146.316 193.988L155 194.089H157.262H158.021H157.262H155H146.316H114.387L67 194.039L39.0277 193.937H33.5293C32.8456 193.978 32.1672 193.796 31.5954 193.419C31.0202 193.021 30.6005 192.436 30.4072 191.763C30.2939 191.121 30.2599 190.467 30.3061 189.817C30.3061 188.553 30.3061 187.289 30.3061 186.025C30.3061 183.497 30.3061 180.969 30.3061 178.441C30.3061 177.177 30.3061 175.913 30.3061 174.649C30.3983 173.926 30.7508 173.262 31.2976 172.78C31.8443 172.298 32.5479 172.033 33.2765 172.032L138.631 172.614L156.82 172.753C157.497 172.711 158.177 172.758 158.842 172.892C159.499 173.106 160.053 173.557 160.397 174.156C160.724 174.713 160.866 175.359 160.801 176.001C160.801 176.595 160.801 177.177 160.801 177.758C160.801 180.046 160.801 182.144 160.801 184.078C160.801 186.012 160.801 187.643 160.801 189.134C160.801 189.855 160.801 190.525 160.801 191.144C160.847 191.709 160.756 192.277 160.536 192.8C160.372 193.149 160.135 193.458 159.84 193.707C159.546 193.955 159.201 194.137 158.83 194.241C158.553 194.264 158.275 194.238 158.008 194.165Z" fill="#E0E0E0"/>
<path d="M63.0625 214.323L30.5527 214.175L30.5257 220.141L63.0354 220.289L63.0625 214.323Z" fill="#1E2772"/>
<path opacity="0.1" d="M63.0625 214.323L30.5527 214.175L30.5257 220.141L63.0354 220.289L63.0625 214.323Z" fill="black"/>
<path d="M157.755 250.931C158.011 250.901 158.264 250.855 158.514 250.792C158.865 250.68 159.189 250.495 159.463 250.249C159.738 250.003 159.957 249.701 160.106 249.364C160.305 248.853 160.382 248.304 160.334 247.759C160.334 247.139 160.334 246.495 160.334 245.749C160.334 244.295 160.334 242.614 160.334 240.693V232.666C160.394 232.085 160.266 231.5 159.967 230.998C159.648 230.492 159.16 230.116 158.59 229.936C157.961 229.819 157.319 229.781 156.681 229.822H138.492L33.1376 229.431C32.5709 229.432 32.0239 229.639 31.5985 230.013C31.173 230.388 30.898 230.904 30.8244 231.466C30.8244 232.73 30.8244 233.994 30.8244 235.258C30.8244 237.786 30.8244 240.314 30.8244 242.842C30.8244 244.106 30.8244 245.37 30.8244 246.634C30.7774 247.22 30.8028 247.81 30.9003 248.391C31.0517 248.906 31.3779 249.353 31.823 249.655C32.287 249.958 32.8377 250.1 33.3904 250.059H38.8888L66.8611 250.211L114.223 250.501L146.152 250.754L154.835 250.855H157.098C157.604 250.855 157.856 250.855 157.856 250.855C157.856 250.855 157.604 250.855 157.098 250.855H154.835H146.152H114.223L66.8611 250.716L38.8888 250.603H33.3904C32.7061 250.649 32.0259 250.466 31.4564 250.084C30.8813 249.686 30.4615 249.101 30.2683 248.429C30.155 247.786 30.121 247.132 30.1672 246.482C30.1672 245.218 30.1672 243.954 30.1672 242.69C30.1672 240.162 30.1672 237.634 30.1672 235.106C30.1672 233.842 30.1672 232.578 30.1672 231.251C30.2565 230.529 30.6064 229.865 31.1511 229.383C31.6958 228.901 32.3977 228.635 33.1249 228.634L138.479 229.216L156.668 229.355C157.346 229.313 158.025 229.36 158.691 229.494C159.347 229.708 159.901 230.159 160.245 230.758C160.572 231.315 160.714 231.961 160.65 232.603C160.65 233.197 160.65 233.791 160.65 234.36C160.65 236.648 160.65 238.746 160.65 240.68C160.65 242.614 160.65 244.245 160.65 245.736C160.65 246.457 160.65 247.127 160.65 247.746C160.698 248.311 160.607 248.88 160.384 249.402C160.22 249.751 159.983 250.06 159.689 250.309C159.394 250.557 159.049 250.739 158.678 250.843C158.382 250.944 158.066 250.974 157.755 250.931Z" fill="#E0E0E0"/>
<path d="M98.9741 180.598L39.5161 180.328L39.4908 185.903L98.9488 186.172L98.9741 180.598Z" fill="#1E2772"/>
<path opacity="0.2" d="M98.9741 180.598L39.5161 180.328L39.4908 185.903L98.9488 186.172L98.9741 180.598Z" fill="white"/>
<path d="M44.8926 240.617C44.8553 241.125 44.6696 241.612 44.3584 242.016C44.0473 242.419 43.6245 242.723 43.1424 242.889C42.6603 243.055 42.1401 243.075 41.6464 242.948C41.1527 242.821 40.7072 242.552 40.3651 242.174C40.023 241.796 39.7994 241.325 39.7221 240.822C39.6447 240.318 39.7169 239.802 39.9298 239.339C40.1428 238.876 40.487 238.485 40.9198 238.216C41.3526 237.946 41.855 237.81 42.3646 237.823C43.0688 237.863 43.7291 238.178 44.2024 238.701C44.6756 239.224 44.9236 239.912 44.8926 240.617Z" fill="#1E2772"/>
<path d="M52.9443 240.655C52.9692 241.011 52.9204 241.369 52.8012 241.706C52.6819 242.042 52.4946 242.351 52.251 242.612C52.0073 242.873 51.7125 243.082 51.385 243.224C51.0574 243.367 50.704 243.44 50.3468 243.44C49.9895 243.44 49.6361 243.367 49.3085 243.224C48.981 243.082 48.6862 242.873 48.4425 242.612C48.1989 242.351 48.0116 242.042 47.8924 241.706C47.7731 241.369 47.7244 241.011 47.7492 240.655C47.7244 240.299 47.7731 239.941 47.8924 239.604C48.0116 239.267 48.1989 238.959 48.4425 238.698C48.6862 238.436 48.981 238.228 49.3085 238.086C49.6361 237.943 49.9895 237.87 50.3468 237.87C50.704 237.87 51.0574 237.943 51.385 238.086C51.7125 238.228 52.0073 238.436 52.251 238.698C52.4946 238.959 52.6819 239.267 52.8012 239.604C52.9204 239.941 52.9692 240.299 52.9443 240.655Z" fill="#1E2772"/>
<path d="M61.0086 240.693C60.9713 241.201 60.7855 241.688 60.4744 242.091C60.1633 242.495 59.7404 242.799 59.2583 242.965C58.7762 243.13 58.2561 243.151 57.7624 243.024C57.2687 242.897 56.8231 242.627 56.4811 242.249C56.139 241.871 55.9154 241.401 55.838 240.897C55.7607 240.394 55.8329 239.878 56.0458 239.415C56.2587 238.952 56.6029 238.561 57.0358 238.292C57.4686 238.022 57.9709 237.886 58.4806 237.899C59.1836 237.942 59.842 238.258 60.3146 238.78C60.7872 239.302 61.0363 239.989 61.0086 240.693Z" fill="#1E2772"/>
<path d="M69.0603 240.731C69.023 241.239 68.8373 241.726 68.5262 242.129C68.215 242.533 67.7922 242.837 67.3101 243.003C66.828 243.168 66.3078 243.189 65.8141 243.062C65.3204 242.935 64.8749 242.665 64.5328 242.287C64.1908 241.909 63.9672 241.439 63.8898 240.935C63.8124 240.432 63.8847 239.916 64.0976 239.453C64.3105 238.99 64.6547 238.599 65.0875 238.33C65.5203 238.06 66.0227 237.924 66.5323 237.937C67.2353 237.98 67.8937 238.296 68.3663 238.818C68.8389 239.34 69.0881 240.027 69.0603 240.731Z" fill="#1E2772"/>
<path d="M77.112 240.756C77.0771 241.265 76.8934 241.753 76.5836 242.159C76.2738 242.564 75.8517 242.87 75.3696 243.037C74.8875 243.205 74.3669 243.227 73.8722 243.102C73.3776 242.976 72.9309 242.707 72.5876 242.33C72.2442 241.952 72.0195 241.482 71.9412 240.977C71.8629 240.473 71.9346 239.957 72.1473 239.493C72.36 239.029 72.7044 238.638 73.1376 238.368C73.5708 238.098 74.0738 237.962 74.584 237.975C75.2848 238.018 75.9412 238.332 76.4135 238.852C76.8857 239.371 77.1364 240.054 77.112 240.756Z" fill="#1E2772"/>
<path d="M85.1763 240.794C85.1418 241.3 84.9599 241.786 84.6531 242.19C84.3463 242.595 83.9279 242.901 83.4494 243.071C82.9709 243.241 82.4532 243.267 81.96 243.146C81.4668 243.026 81.0196 242.763 80.6735 242.392C80.3273 242.021 80.0973 241.556 80.0118 241.056C79.9263 240.555 79.989 240.04 80.1921 239.575C80.3952 239.11 80.73 238.714 81.1552 238.436C81.5803 238.159 82.0773 238.012 82.5851 238.013C83.297 238.039 83.9695 238.347 84.4552 238.868C84.9409 239.389 85.2002 240.082 85.1763 240.794Z" fill="#1E2772"/>
<path d="M93.228 240.832C93.2528 241.188 93.2041 241.546 93.0848 241.883C92.9656 242.219 92.7783 242.528 92.5347 242.789C92.291 243.05 91.9962 243.259 91.6686 243.401C91.341 243.543 90.9877 243.617 90.6304 243.617C90.2732 243.617 89.9198 243.543 89.5922 243.401C89.2646 243.259 88.9699 243.05 88.7262 242.789C88.4826 242.528 88.2953 242.219 88.176 241.883C88.0568 241.546 88.0081 241.188 88.0329 240.832C88.0081 240.475 88.0568 240.118 88.176 239.781C88.2953 239.444 88.4826 239.136 88.7262 238.875C88.9699 238.613 89.2646 238.405 89.5922 238.263C89.9198 238.12 90.2732 238.047 90.6304 238.047C90.9877 238.047 91.341 238.12 91.6686 238.263C91.9962 238.405 92.291 238.613 92.5347 238.875C92.7783 239.136 92.9656 239.444 93.0848 239.781C93.2041 240.118 93.2528 240.475 93.228 240.832Z" fill="#1E2772"/>
<path d="M101.28 240.87C101.245 241.376 101.063 241.862 100.757 242.266C100.45 242.671 100.031 242.977 99.5529 243.147C99.0744 243.317 98.5567 243.343 98.0635 243.222C97.5703 243.102 97.1231 242.839 96.777 242.468C96.4308 242.096 96.2009 241.632 96.1153 241.131C96.0298 240.631 96.0925 240.116 96.2956 239.651C96.4987 239.186 96.8335 238.79 97.2586 238.512C97.6838 238.235 98.1809 238.088 98.6886 238.089C99.4005 238.115 100.073 238.423 100.559 238.944C101.044 239.465 101.304 240.158 101.28 240.87Z" fill="#1E2772"/>
<path d="M109.331 240.908C109.297 241.417 109.113 241.905 108.803 242.31C108.493 242.716 108.071 243.021 107.589 243.189C107.107 243.357 106.586 243.379 106.092 243.253C105.597 243.127 105.15 242.859 104.807 242.481C104.464 242.104 104.239 241.633 104.161 241.129C104.082 240.625 104.154 240.109 104.367 239.645C104.58 239.181 104.924 238.789 105.357 238.52C105.79 238.25 106.293 238.113 106.803 238.127C107.504 238.169 108.161 238.484 108.633 239.003C109.105 239.523 109.356 240.206 109.331 240.908Z" fill="#1E2772"/>
<g opacity="0.2">
<path d="M44.8926 240.617C44.8553 241.125 44.6696 241.612 44.3584 242.016C44.0473 242.419 43.6245 242.723 43.1424 242.889C42.6603 243.055 42.1401 243.075 41.6464 242.948C41.1527 242.821 40.7072 242.552 40.3651 242.174C40.023 241.796 39.7994 241.325 39.7221 240.822C39.6447 240.318 39.7169 239.802 39.9298 239.339C40.1428 238.876 40.487 238.485 40.9198 238.216C41.3526 237.946 41.855 237.81 42.3646 237.823C43.0688 237.863 43.7291 238.178 44.2024 238.701C44.6756 239.224 44.9236 239.912 44.8926 240.617Z" fill="white"/>
<path d="M52.9443 240.655C52.9692 241.011 52.9204 241.369 52.8012 241.706C52.6819 242.042 52.4946 242.351 52.251 242.612C52.0073 242.873 51.7125 243.082 51.385 243.224C51.0574 243.367 50.704 243.44 50.3468 243.44C49.9895 243.44 49.6361 243.367 49.3085 243.224C48.981 243.082 48.6862 242.873 48.4425 242.612C48.1989 242.351 48.0116 242.042 47.8924 241.706C47.7731 241.369 47.7244 241.011 47.7492 240.655C47.7244 240.299 47.7731 239.941 47.8924 239.604C48.0116 239.267 48.1989 238.959 48.4425 238.698C48.6862 238.436 48.981 238.228 49.3085 238.086C49.6361 237.943 49.9895 237.87 50.3468 237.87C50.704 237.87 51.0574 237.943 51.385 238.086C51.7125 238.228 52.0073 238.436 52.251 238.698C52.4946 238.959 52.6819 239.267 52.8012 239.604C52.9204 239.941 52.9692 240.299 52.9443 240.655Z" fill="white"/>
<path d="M61.0086 240.693C60.9713 241.201 60.7855 241.688 60.4744 242.091C60.1633 242.495 59.7404 242.799 59.2583 242.965C58.7762 243.13 58.2561 243.151 57.7624 243.024C57.2687 242.897 56.8231 242.627 56.4811 242.249C56.139 241.871 55.9154 241.401 55.838 240.897C55.7607 240.394 55.8329 239.878 56.0458 239.415C56.2587 238.952 56.6029 238.561 57.0358 238.292C57.4686 238.022 57.9709 237.886 58.4806 237.899C59.1836 237.942 59.842 238.258 60.3146 238.78C60.7872 239.302 61.0363 239.989 61.0086 240.693Z" fill="white"/>
<path d="M69.0603 240.731C69.023 241.239 68.8373 241.726 68.5262 242.129C68.215 242.533 67.7922 242.837 67.3101 243.003C66.828 243.168 66.3078 243.189 65.8141 243.062C65.3204 242.935 64.8749 242.665 64.5328 242.287C64.1908 241.909 63.9672 241.439 63.8898 240.935C63.8124 240.432 63.8847 239.916 64.0976 239.453C64.3105 238.99 64.6547 238.599 65.0875 238.33C65.5203 238.06 66.0227 237.924 66.5323 237.937C67.2353 237.98 67.8937 238.296 68.3663 238.818C68.8389 239.34 69.0881 240.027 69.0603 240.731Z" fill="white"/>
<path d="M77.112 240.756C77.0771 241.265 76.8934 241.753 76.5836 242.159C76.2738 242.564 75.8517 242.87 75.3696 243.037C74.8875 243.205 74.3669 243.227 73.8722 243.102C73.3776 242.976 72.9309 242.707 72.5876 242.33C72.2442 241.952 72.0195 241.482 71.9412 240.977C71.8629 240.473 71.9346 239.957 72.1473 239.493C72.36 239.029 72.7044 238.638 73.1376 238.368C73.5708 238.098 74.0738 237.962 74.584 237.975C75.2848 238.018 75.9412 238.332 76.4135 238.852C76.8857 239.371 77.1364 240.054 77.112 240.756Z" fill="white"/>
<path d="M85.1763 240.794C85.1418 241.3 84.9599 241.786 84.6531 242.19C84.3463 242.595 83.9279 242.901 83.4494 243.071C82.9709 243.241 82.4532 243.267 81.96 243.146C81.4668 243.026 81.0196 242.763 80.6735 242.392C80.3273 242.021 80.0973 241.556 80.0118 241.056C79.9263 240.555 79.989 240.04 80.1921 239.575C80.3952 239.11 80.73 238.714 81.1552 238.436C81.5803 238.159 82.0773 238.012 82.5851 238.013C83.297 238.039 83.9695 238.347 84.4552 238.868C84.9409 239.389 85.2002 240.082 85.1763 240.794Z" fill="white"/>
<path d="M93.228 240.832C93.2528 241.188 93.2041 241.546 93.0848 241.883C92.9656 242.219 92.7783 242.528 92.5347 242.789C92.291 243.05 91.9962 243.259 91.6686 243.401C91.341 243.543 90.9877 243.617 90.6304 243.617C90.2732 243.617 89.9198 243.543 89.5922 243.401C89.2646 243.259 88.9699 243.05 88.7262 242.789C88.4826 242.528 88.2953 242.219 88.176 241.883C88.0568 241.546 88.0081 241.188 88.0329 240.832C88.0081 240.475 88.0568 240.118 88.176 239.781C88.2953 239.444 88.4826 239.136 88.7262 238.875C88.9699 238.613 89.2646 238.405 89.5922 238.263C89.9198 238.12 90.2732 238.047 90.6304 238.047C90.9877 238.047 91.341 238.12 91.6686 238.263C91.9962 238.405 92.291 238.613 92.5347 238.875C92.7783 239.136 92.9656 239.444 93.0848 239.781C93.2041 240.118 93.2528 240.475 93.228 240.832Z" fill="white"/>
<path d="M101.28 240.87C101.245 241.376 101.063 241.862 100.757 242.266C100.45 242.671 100.031 242.977 99.5529 243.147C99.0744 243.317 98.5567 243.343 98.0635 243.222C97.5703 243.102 97.1231 242.839 96.777 242.468C96.4308 242.096 96.2009 241.632 96.1153 241.131C96.0298 240.631 96.0925 240.116 96.2956 239.651C96.4987 239.186 96.8335 238.79 97.2586 238.512C97.6838 238.235 98.1809 238.088 98.6886 238.089C99.4005 238.115 100.073 238.423 100.559 238.944C101.044 239.465 101.304 240.158 101.28 240.87Z" fill="white"/>
<path d="M109.331 240.908C109.296 241.417 109.113 241.905 108.803 242.31C108.493 242.716 108.071 243.022 107.589 243.189C107.107 243.357 106.586 243.379 106.092 243.253C105.597 243.127 105.15 242.859 104.807 242.481C104.463 242.104 104.239 241.634 104.16 241.129C104.082 240.625 104.154 240.109 104.367 239.645C104.579 239.181 104.924 238.79 105.357 238.52C105.79 238.25 106.293 238.113 106.803 238.127C107.504 238.169 108.16 238.484 108.633 239.003C109.105 239.523 109.356 240.206 109.331 240.908Z" fill="white"/>
</g>
<path d="M97.8922 58.4367C98.7703 58.05 99.5153 57.4137 100.034 56.6068C100.554 55.8 100.824 54.8583 100.812 53.8989C100.845 53.2753 100.75 52.6515 100.534 52.0656C100.318 51.4797 99.9848 50.9439 99.5549 50.4909C99.1251 50.0378 98.6075 49.6771 98.0337 49.4306C97.4599 49.184 96.8419 49.0569 96.2174 49.0569C95.5929 49.0569 94.9749 49.184 94.4012 49.4306C93.8274 49.6771 93.3098 50.0378 92.8799 50.4909C92.45 50.9439 92.1169 51.4797 91.9008 52.0656C91.6847 52.6515 91.5901 53.2753 91.6228 53.8989C91.6036 54.8679 91.8718 55.8208 92.3937 56.6375C92.9156 57.4541 93.6678 58.0978 94.5553 58.4872C87.4769 59.549 87.7929 67.2341 87.7929 67.2341L104.528 67.31C104.528 67.31 104.92 59.4858 97.8922 58.4367Z" fill="#1E2772"/>
<path opacity="0.1" d="M97.8922 58.4367C98.7703 58.05 99.5153 57.4137 100.034 56.6068C100.554 55.8 100.824 54.8583 100.812 53.8989C100.845 53.2753 100.75 52.6515 100.534 52.0656C100.318 51.4797 99.9848 50.9439 99.5549 50.4909C99.1251 50.0378 98.6075 49.6771 98.0337 49.4306C97.4599 49.184 96.8419 49.0569 96.2174 49.0569C95.5929 49.0569 94.9749 49.184 94.4012 49.4306C93.8274 49.6771 93.3098 50.0378 92.8799 50.4909C92.45 50.9439 92.1169 51.4797 91.9008 52.0656C91.6847 52.6515 91.5901 53.2753 91.6228 53.8989C91.6036 54.8679 91.8718 55.8208 92.3937 56.6375C92.9156 57.4541 93.6678 58.0978 94.5553 58.4872C87.4769 59.549 87.7929 67.2341 87.7929 67.2341L104.528 67.31C104.528 67.31 104.92 59.4858 97.8922 58.4367Z" fill="black"/>
<path d="M125.086 72.2666L65.439 71.996L65.4066 79.1249L125.054 79.3955L125.086 72.2666Z" fill="#1E2772"/>
<path opacity="0.2" d="M125.086 72.2666L65.439 71.996L65.4066 79.1249L125.054 79.3955L125.086 72.2666Z" fill="white"/>
</svg>
